<svg xmlns="http://www.w3.org/2000/svg" id="Layer_25" width="86.539" height="78.164" viewBox="0 0 86.539 78.164"><path id="Path_29115" data-name="Path 29115" d="M84.164,84.372H11.583A5.583,5.583,0,0,1,6,78.789V14.583A5.583,5.583,0,0,1,11.583,9H84.164a5.583,5.583,0,0,1,5.583,5.583V78.789A5.583,5.583,0,0,1,84.164,84.372Z" transform="translate(-4.604 -7.604)" fill="#f6b9c3"></path><path id="Path_29116" data-name="Path 29116" d="M63.665,57.916H21.792A2.791,2.791,0,0,1,19,55.124V32.792A2.791,2.791,0,0,1,21.792,30H63.665a2.791,2.791,0,0,1,2.792,2.792V55.124A2.791,2.791,0,0,1,63.665,57.916Z" transform="translate(0.541 0.707)" fill="#fbe398"></path><path id="Path_29117" data-name="Path 29117" d="M38,38l6.979,19.541,4.187-2.792,9.77,9.77,5.583-5.583-9.77-8.375,2.792-5.583L43.583,39.4Z" transform="translate(8.061 3.874)" fill="#fff"></path><path id="Path_29118" data-name="Path 29118" d="M11.583,9H84.164a5.583,5.583,0,0,1,5.583,5.583v5.583H6V14.583A5.583,5.583,0,0,1,11.583,9Z" transform="translate(-4.604 -7.604)" fill="#c9a9d1"></path><g id="Group_12684" data-name="Group 12684" transform="translate(0 0)"><g id="Group_12683" data-name="Group 12683"><path id="Path_29119" data-name="Path 29119" d="M84.56,8H11.979A6.987,6.987,0,0,0,5,14.979V79.185a6.987,6.987,0,0,0,6.979,6.979H84.56a6.987,6.987,0,0,0,6.979-6.979V14.979A6.987,6.987,0,0,0,84.56,8Zm4.187,71.185a4.192,4.192,0,0,1-4.187,4.187H11.979a4.192,4.192,0,0,1-4.187-4.187V21.958H59.436a1.4,1.4,0,0,0,0-2.792H7.792V14.979a4.192,4.192,0,0,1,4.187-4.187H84.56a4.192,4.192,0,0,1,4.187,4.187Z" transform="translate(-5 -8)" fill="#24185c"></path><path id="Path_29120" data-name="Path 29120" d="M48.4,18.792H60.958a1.4,1.4,0,0,0,0-2.792H48.4a1.4,1.4,0,0,0,0,2.792Z" transform="translate(11.623 -4.834)" fill="#24185c"></path><path id="Path_29121" data-name="Path 29121" d="M64.187,16H61.4a1.4,1.4,0,0,0,0,2.792h2.792a1.4,1.4,0,0,0,0-2.792Z" transform="translate(16.768 -4.834)" fill="#24185c"></path><circle id="Ellipse_1279" data-name="Ellipse 1279" cx="1.5" cy="1.5" r="1.5" transform="translate(6.539 5.164)" fill="#24185c"></circle><circle id="Ellipse_1280" data-name="Ellipse 1280" cx="1.5" cy="1.5" r="1.5" transform="translate(13.539 5.164)" fill="#24185c"></circle><circle id="Ellipse_1281" data-name="Ellipse 1281" cx="1.5" cy="1.5" r="1.5" transform="translate(20.539 5.164)" fill="#24185c"></circle><path id="Path_29122" data-name="Path 29122" d="M43.124,58.311a1.4,1.4,0,0,0-1.4-1.4H22.187a1.4,1.4,0,0,1-1.4-1.4V33.187a1.4,1.4,0,0,1,1.4-1.4H64.061a1.4,1.4,0,0,1,1.4,1.4v8.375a1.4,1.4,0,1,0,2.792,0V33.187A4.192,4.192,0,0,0,64.061,29H22.187A4.192,4.192,0,0,0,18,33.187V55.52a4.192,4.192,0,0,0,4.187,4.187H41.728A1.4,1.4,0,0,0,43.124,58.311Z" transform="translate(0.145 0.311)" fill="#24185c"></path><path id="Path_29123" data-name="Path 29123" d="M56.411,49.9l3.7-3.7a1.4,1.4,0,0,0-.546-2.311L38.837,36.981a1.4,1.4,0,0,0-1.766,1.764L43.98,59.472a1.4,1.4,0,0,0,2.311.544l3.7-3.7,8.068,9.533a1.4,1.4,0,0,0,1.008.494h.057a1.389,1.389,0,0,0,.987-.409l5.922-5.921a1.4,1.4,0,0,0-.085-2.053Zm2.8,12.995-8.068-9.533a1.4,1.4,0,0,0-1.008-.494h-.059a1.4,1.4,0,0,0-.987.409l-3.173,3.173L40.6,40.509l15.936,5.312-3.173,3.173a1.4,1.4,0,0,0,.085,2.053l9.535,8.068Z" transform="translate(7.665 3.441)" fill="#24185c"></path><path id="Path_29124" data-name="Path 29124" d="M36.4,31.166a1.4,1.4,0,0,0,1.4-1.4V21.4A1.4,1.4,0,1,0,35,21.4V29.77A1.4,1.4,0,0,0,36.4,31.166Z" transform="translate(6.874 -3.251)" fill="#24185c"></path><path id="Path_29125" data-name="Path 29125" d="M30.992,29.966a1.4,1.4,0,0,0,1.974-1.974l-5.583-5.583a1.4,1.4,0,0,0-1.974,1.974Z" transform="translate(2.916 -2.459)" fill="#24185c"></path><path id="Path_29126" data-name="Path 29126" d="M42.4,30.375a1.392,1.392,0,0,0,.987-.409l5.583-5.583a1.4,1.4,0,1,0-1.974-1.974l-5.583,5.583a1.4,1.4,0,0,0,.987,2.383Z" transform="translate(9.248 -2.459)" fill="#24185c"></path><path id="Path_29127" data-name="Path 29127" d="M36.4,52A1.4,1.4,0,0,0,35,53.4V61.77a1.4,1.4,0,0,0,2.792,0V53.4A1.4,1.4,0,0,0,36.4,52Z" transform="translate(6.874 9.415)" fill="#24185c"></path><path id="Path_29128" data-name="Path 29128" d="M30.992,52.409l-5.583,5.583a1.4,1.4,0,1,0,1.974,1.974l5.583-5.583a1.4,1.4,0,1,0-1.974-1.974Z" transform="translate(2.916 9.414)" fill="#24185c"></path></g></g></svg>