<svg xmlns="http://www.w3.org/2000/svg" id="Layer_25" width="92.122" height="80.955" viewBox="0 0 92.122 80.955"><path id="Path_29129" data-name="Path 29129" d="M26.583,22H81.019A5.583,5.583,0,0,1,86.6,27.583V75.04a5.583,5.583,0,0,1-5.583,5.583H26.583A5.583,5.583,0,0,1,21,75.04V27.583A5.583,5.583,0,0,1,26.583,22Z" transform="translate(4.124 -1.063)" fill="#fbe398"></path><path id="Path_29130" data-name="Path 29130" d="M54.248,44.29H6.792A2.791,2.791,0,0,1,4,41.5V10.792A2.791,2.791,0,0,1,6.792,8H54.248a2.791,2.791,0,0,1,2.792,2.792V41.5A2.791,2.791,0,0,1,54.248,44.29Z" transform="translate(-2.604 -6.604)" fill="#c9a9d1"></path><path id="Path_29131" data-name="Path 29131" d="M4,37.333,20.749,23.375l6.979,5.583L41.686,15,57.04,26.166V40.124l-1.4,1.4H5.4L4,38.728Z" transform="translate(-2.604 -3.834)" fill="#a5d3b8"></path><ellipse id="Ellipse_1282" data-name="Ellipse 1282" cx="2.5" cy="3" rx="2.5" ry="3" transform="translate(7.115 6.955)" fill="#fffad9"></ellipse><g id="Group_12689" data-name="Group 12689" transform="translate(0 0)"><g id="Group_12688" data-name="Group 12688"><g id="Group_12685" data-name="Group 12685"><path id="Path_29132" data-name="Path 29132" d="M54.644,46.082H7.187A4.192,4.192,0,0,1,3,41.895V11.187A4.192,4.192,0,0,1,7.187,7H54.644a4.192,4.192,0,0,1,4.187,4.187V41.895A4.192,4.192,0,0,1,54.644,46.082ZM7.187,9.792a1.4,1.4,0,0,0-1.4,1.4V41.895a1.4,1.4,0,0,0,1.4,1.4H54.644a1.4,1.4,0,0,0,1.4-1.4V11.187a1.4,1.4,0,0,0-1.4-1.4Z" transform="translate(-3 -7)" fill="#24185c"></path></g><g id="Group_12686" data-name="Group 12686" transform="translate(4.188 9.771)"><path id="Path_29133" data-name="Path 29133" d="M7.4,36.332a1.4,1.4,0,0,1-.927-2.438L19.031,22.728a1.394,1.394,0,0,1,1.8-.046l6,4.8L39.908,14.41a1.393,1.393,0,0,1,1.824-.13L52.9,22.655a1.4,1.4,0,0,1-1.674,2.233l-10.2-7.648-13.1,13.1a1.4,1.4,0,0,1-1.859.1L20.005,25.6,8.322,35.983a1.4,1.4,0,0,1-.927.349Z" transform="translate(-6 -14)" fill="#24185c"></path></g><g id="Group_12687" data-name="Group 12687" transform="translate(5.583 5.583)"><path id="Path_29134" data-name="Path 29134" d="M11.187,19.375a4.187,4.187,0,1,1,4.187-4.187A4.192,4.192,0,0,1,11.187,19.375Zm0-5.583a1.4,1.4,0,1,0,1.4,1.4A1.4,1.4,0,0,0,11.187,13.792Z" transform="translate(-7 -11)" fill="#24185c"></path></g></g></g><g id="Group_12691" data-name="Group 12691" transform="translate(23.728 19.541)"><g id="Group_12690" data-name="Group 12690"><path id="Path_29135" data-name="Path 29135" d="M81.415,82.415H26.979A6.987,6.987,0,0,1,20,75.436V44.728a1.4,1.4,0,0,1,2.792,0V75.436a4.192,4.192,0,0,0,4.187,4.187H81.415A4.192,4.192,0,0,0,85.6,75.436V27.979a4.192,4.192,0,0,0-4.187-4.187H56.29a1.4,1.4,0,1,1,0-2.792H81.415a6.987,6.987,0,0,1,6.979,6.979V75.436A6.987,6.987,0,0,1,81.415,82.415Z" transform="translate(-20 -21)" fill="#24185c"></path></g></g><g id="Group_12693" data-name="Group 12693" transform="translate(60.019 27.916)"><g id="Group_12692" data-name="Group 12692"><path id="Path_29136" data-name="Path 29136" d="M66.937,29.792H47.4A1.4,1.4,0,0,1,47.4,27H66.937a1.4,1.4,0,0,1,0,2.792Z" transform="translate(-46 -27)" fill="#24185c"></path></g></g><g id="Group_12695" data-name="Group 12695" transform="translate(60.019 34.895)"><g id="Group_12694" data-name="Group 12694"><path id="Path_29137" data-name="Path 29137" d="M54.375,34.792H47.4A1.4,1.4,0,0,1,47.4,32h6.979a1.4,1.4,0,0,1,0,2.792Z" transform="translate(-46 -32)" fill="#24185c"></path></g></g><g id="Group_12697" data-name="Group 12697" transform="translate(72.581 34.895)"><g id="Group_12696" data-name="Group 12696"><path id="Path_29138" data-name="Path 29138" d="M63.375,34.792H56.4A1.4,1.4,0,0,1,56.4,32h6.979a1.4,1.4,0,1,1,0,2.792Z" transform="translate(-55 -32)" fill="#24185c"></path></g></g><g id="Group_12699" data-name="Group 12699" transform="translate(39.082 43.269)"><g id="Group_12698" data-name="Group 12698"><path id="Path_29139" data-name="Path 29139" d="M56.124,40.792H32.4A1.4,1.4,0,0,1,32.4,38H56.124a1.4,1.4,0,0,1,0,2.792Z" transform="translate(-31 -38)" fill="#24185c"></path></g></g><g id="Group_12701" data-name="Group 12701" transform="translate(68.393 43.269)"><g id="Group_12700" data-name="Group 12700"><path id="Path_29140" data-name="Path 29140" d="M64.562,40.792H53.4A1.4,1.4,0,0,1,53.4,38H64.562a1.4,1.4,0,1,1,0,2.792Z" transform="translate(-52 -38)" fill="#24185c"></path></g></g><g id="Group_12703" data-name="Group 12703" transform="translate(33.499 53.04)"><g id="Group_12702" data-name="Group 12702"><path id="Path_29141" data-name="Path 29141" d="M59.1,47.792H28.4A1.4,1.4,0,0,1,28.4,45H59.1a1.4,1.4,0,1,1,0,2.792Z" transform="translate(-27 -45)" fill="#24185c"></path></g></g><g id="Group_12705" data-name="Group 12705" transform="translate(68.393 53.04)"><g id="Group_12704" data-name="Group 12704"><path id="Path_29142" data-name="Path 29142" d="M56.187,47.792H53.4A1.4,1.4,0,0,1,53.4,45h2.792a1.4,1.4,0,0,1,0,2.792Z" transform="translate(-52 -45)" fill="#24185c"></path></g></g><g id="Group_12707" data-name="Group 12707" transform="translate(75.372 53.04)"><g id="Group_12706" data-name="Group 12706"><path id="Path_29143" data-name="Path 29143" d="M62.583,47.792H58.4A1.4,1.4,0,0,1,58.4,45h4.187a1.4,1.4,0,1,1,0,2.792Z" transform="translate(-57 -45)" fill="#24185c"></path></g></g><g id="Group_12709" data-name="Group 12709" transform="translate(39.082 60.019)"><g id="Group_12708" data-name="Group 12708"><path id="Path_29144" data-name="Path 29144" d="M54.728,52.792H32.4A1.4,1.4,0,0,1,32.4,50H54.728a1.4,1.4,0,0,1,0,2.792Z" transform="translate(-31 -50)" fill="#24185c"></path></g></g><g id="Group_12711" data-name="Group 12711" transform="translate(66.998 60.019)"><g id="Group_12710" data-name="Group 12710"><path id="Path_29145" data-name="Path 29145" d="M64.958,52.792H52.4A1.4,1.4,0,0,1,52.4,50H64.958a1.4,1.4,0,1,1,0,2.792Z" transform="translate(-51 -50)" fill="#24185c"></path></g></g><g id="Group_12713" data-name="Group 12713" transform="translate(33.499 69.789)"><g id="Group_12712" data-name="Group 12712"><path id="Path_29146" data-name="Path 29146" d="M45.145,59.792H28.4A1.4,1.4,0,0,1,28.4,57H45.145a1.4,1.4,0,0,1,0,2.792Z" transform="translate(-27 -57)" fill="#24185c"></path></g></g><g id="Group_12715" data-name="Group 12715" transform="translate(55.831 69.789)"><g id="Group_12714" data-name="Group 12714"><path id="Path_29147" data-name="Path 29147" d="M68.124,59.792H44.4A1.4,1.4,0,0,1,44.4,57H68.124a1.4,1.4,0,1,1,0,2.792Z" transform="translate(-43 -57)" fill="#24185c"></path></g></g></svg>