<svg xmlns="http://www.w3.org/2000/svg" id="Layer_25" width="86.539" height="78.164" viewBox="0 0 86.539 78.164"><path id="Path_29095" data-name="Path 29095" d="M84.164,84.372H11.583A5.583,5.583,0,0,1,6,78.789V14.583A5.583,5.583,0,0,1,11.583,9H84.164a5.583,5.583,0,0,1,5.583,5.583V78.789A5.583,5.583,0,0,1,84.164,84.372Z" transform="translate(-4.604 -7.604)" fill="#fbe398"></path><path id="Path_29096" data-name="Path 29096" d="M12,23H39.916V39.749H12Z" transform="translate(-2.23 -2.063)" fill="#fffad9"></path><path id="Path_29097" data-name="Path 29097" d="M63.665,57.916H21.792A2.791,2.791,0,0,1,19,55.124V32.792A2.791,2.791,0,0,1,21.792,30H63.665a2.791,2.791,0,0,1,2.792,2.792V55.124A2.791,2.791,0,0,1,63.665,57.916Z" transform="translate(0.541 0.707)" fill="#a5d3b8"></path><path id="Path_29098" data-name="Path 29098" d="M44.979,41,38,52.166l6.979,11.166H58.937l6.979-11.166L58.937,41Z" transform="translate(8.061 5.061)" fill="#f6b9c3"></path><path id="Path_29099" data-name="Path 29099" d="M25.792,36.792v2.792L23,42.375l2.792,2.792v2.792h2.792l2.792,2.792,2.792-2.792h2.792V45.166l2.792-2.792-2.792-2.792V35.4l-4.187,1.4L31.375,34l-2.792,2.792Z" transform="translate(2.124 2.29)" fill="#fff"></path><path id="Path_29100" data-name="Path 29100" d="M7.4,20.166H89.747V13.187L85.56,9H10.187L6,13.187v6.979Z" transform="translate(-4.604 -7.604)" fill="#c9a9d1"></path><g id="Group_12682" data-name="Group 12682" transform="translate(0 0)"><g id="Group_12681" data-name="Group 12681"><path id="Path_29101" data-name="Path 29101" d="M84.56,8H11.979A6.987,6.987,0,0,0,5,14.979V79.185a6.987,6.987,0,0,0,6.979,6.979H84.56a6.987,6.987,0,0,0,6.979-6.979V14.979A6.987,6.987,0,0,0,84.56,8Zm4.187,71.185a4.192,4.192,0,0,1-4.187,4.187H11.979a4.192,4.192,0,0,1-4.187-4.187V21.958H59.436a1.4,1.4,0,0,0,0-2.792H7.792V14.979a4.192,4.192,0,0,1,4.187-4.187H84.56a4.192,4.192,0,0,1,4.187,4.187Z" transform="translate(-5 -8)" fill="#24185c"></path><path id="Path_29102" data-name="Path 29102" d="M48.4,18.792H60.958a1.4,1.4,0,0,0,0-2.792H48.4a1.4,1.4,0,0,0,0,2.792Z" transform="translate(11.623 -4.834)" fill="#24185c"></path><path id="Path_29103" data-name="Path 29103" d="M64.187,16H61.4a1.4,1.4,0,0,0,0,2.792h2.792a1.4,1.4,0,0,0,0-2.792Z" transform="translate(16.768 -4.834)" fill="#24185c"></path><ellipse id="Ellipse_1276" data-name="Ellipse 1276" cx="1.5" cy="1" rx="1.5" ry="1" transform="translate(7.108 5.955)" fill="#24185c"></ellipse><ellipse id="Ellipse_1277" data-name="Ellipse 1277" cx="1.5" cy="1" rx="1.5" ry="1" transform="translate(14.108 5.955)" fill="#24185c"></ellipse><ellipse id="Ellipse_1278" data-name="Ellipse 1278" cx="1.5" cy="1" rx="1.5" ry="1" transform="translate(21.108 5.955)" fill="#24185c"></ellipse><path id="Path_29104" data-name="Path 29104" d="M41.728,56.916H22.187a1.4,1.4,0,0,1-1.4-1.4V33.187a1.4,1.4,0,0,1,1.4-1.4H64.061a1.4,1.4,0,0,1,1.4,1.4v8.375a1.4,1.4,0,1,0,2.792,0V33.187A4.192,4.192,0,0,0,64.061,29H22.187A4.192,4.192,0,0,0,18,33.187V55.52a4.192,4.192,0,0,0,4.187,4.187H41.728a1.4,1.4,0,0,0,0-2.792Z" transform="translate(0.145 0.311)" fill="#24185c"></path><path id="Path_29105" data-name="Path 29105" d="M60.516,40.656A1.4,1.4,0,0,0,59.333,40H45.375a1.4,1.4,0,0,0-1.184.656L37.212,51.822a1.394,1.394,0,0,0,0,1.48l6.979,11.166a1.4,1.4,0,0,0,1.184.656H59.333a1.4,1.4,0,0,0,1.184-.656L67.5,53.3a1.394,1.394,0,0,0,0-1.48ZM58.558,62.333H46.148l-6.107-9.77,6.107-9.77h12.41l6.107,9.77Z" transform="translate(7.665 4.665)" fill="#24185c"></path><path id="Path_29106" data-name="Path 29106" d="M54.575,44.409l-4.6,4.6-4.6-4.6a1.4,1.4,0,1,0-1.974,1.974l4.6,4.6-4.6,4.6a1.4,1.4,0,1,0,1.974,1.974l4.6-4.6,4.6,4.6a1.4,1.4,0,1,0,1.974-1.974l-4.6-4.6,4.6-4.6a1.4,1.4,0,1,0-1.974-1.974Z" transform="translate(10.04 6.248)" fill="#24185c"></path><path id="Path_29107" data-name="Path 29107" d="M16.583,41.541a1.4,1.4,0,1,0,0-2.792H13.792V24.792H38.916v2.792a1.4,1.4,0,1,0,2.792,0V23.4a1.4,1.4,0,0,0-1.4-1.4H12.4A1.4,1.4,0,0,0,11,23.4V40.145a1.4,1.4,0,0,0,1.4,1.4Z" transform="translate(-2.625 -2.459)" fill="#24185c"></path><path id="Path_29108" data-name="Path 29108" d="M16.187,42H13.4a1.4,1.4,0,1,0,0,2.792h2.792a1.4,1.4,0,1,0,0-2.792Z" transform="translate(-2.23 5.457)" fill="#24185c"></path><path id="Path_29109" data-name="Path 29109" d="M16.187,46H13.4a1.4,1.4,0,1,0,0,2.792h2.792a1.4,1.4,0,1,0,0-2.792Z" transform="translate(-2.23 7.04)" fill="#24185c"></path><path id="Path_29110" data-name="Path 29110" d="M20.375,53H13.4a1.4,1.4,0,0,0,0,2.792h6.979a1.4,1.4,0,0,0,0-2.792Z" transform="translate(-2.23 9.81)" fill="#24185c"></path><path id="Path_29111" data-name="Path 29111" d="M61.562,22H50.4a1.4,1.4,0,0,0,0,2.792H61.562a1.4,1.4,0,1,0,0-2.792Z" transform="translate(12.415 -2.459)" fill="#24185c"></path><path id="Path_29112" data-name="Path 29112" d="M59.187,25H56.4a1.4,1.4,0,0,0,0,2.792h2.792a1.4,1.4,0,1,0,0-2.792Z" transform="translate(14.789 -1.272)" fill="#24185c"></path><path id="Path_29113" data-name="Path 29113" d="M59.187,28H56.4a1.4,1.4,0,0,0,0,2.792h2.792a1.4,1.4,0,1,0,0-2.792Z" transform="translate(14.789 -0.084)" fill="#24185c"></path><path id="Path_29114" data-name="Path 29114" d="M38.953,39.784c.84-2.117.359-3.288-.272-3.922s-1.8-1.117-3.924-.274c-.9-2.1-2.083-2.588-2.987-2.588s-2.083.491-2.987,2.588c-2.116-.84-3.288-.36-3.922.274s-1.114,1.8-.274,3.922c-2.1.9-2.588,2.083-2.588,2.987s.491,2.083,2.588,2.987c-.84,2.117-.359,3.288.272,3.922s1.8,1.114,3.924.275c.9,2.1,2.083,2.586,2.987,2.586s2.083-.491,2.987-2.588c2.12.84,3.288.357,3.922-.274s1.114-1.8.274-3.922c2.1-.9,2.588-2.083,2.588-2.987S41.05,40.688,38.953,39.784ZM36.643,43.6a1.394,1.394,0,0,0-.849,2.043,6.027,6.027,0,0,1,.8,1.955,6.042,6.042,0,0,1-1.955-.805,1.4,1.4,0,0,0-2.043.85,5.828,5.828,0,0,1-.829,1.965,5.872,5.872,0,0,1-.829-1.965,1.4,1.4,0,0,0-2.043-.85,6.076,6.076,0,0,1-1.955.805,6.015,6.015,0,0,1,.8-1.955A1.394,1.394,0,0,0,26.9,43.6a5.843,5.843,0,0,1-1.965-.829,5.843,5.843,0,0,1,1.965-.829,1.394,1.394,0,0,0,.849-2.043,6.027,6.027,0,0,1-.8-1.955,6.015,6.015,0,0,1,1.955.8,1.4,1.4,0,0,0,2.043-.85,5.842,5.842,0,0,1,.829-1.965A5.872,5.872,0,0,1,32.6,37.9a1.4,1.4,0,0,0,2.043.85,6.015,6.015,0,0,1,1.955-.8,6.027,6.027,0,0,1-.8,1.955,1.394,1.394,0,0,0,.849,2.043,5.843,5.843,0,0,1,1.965.829A5.843,5.843,0,0,1,36.643,43.6Z" transform="translate(1.728 1.895)" fill="#24185c"></path></g></g></svg>